<svg width="24" height="24" xmlns="http://www.w3.org/2000/svg" class="lucide lucide-scroll-text-icon lucide-scroll-text" stroke-linejoin="round" stroke-linecap="round" stroke-width="2" stroke="currentColor" fill="none">
 <defs>
  <linearGradient y2="100%" x2="100%" y1="0%" x1="0%" id="svg_6">
   <stop stop-color="#f5e7c1" offset="0%"/>
   <stop stop-color="#eedcb3" offset="50%"/>
   <stop stop-color="#e6d2a5" offset="100%"/>
  </linearGradient>
  <pattern patternTransform="matrix(1,0,0,1,-353.1102600097656,-365.95074462890625)" patternUnits="userSpaceOnUse" height="100" width="100" id="svg_5">
   <rect fill="transparent" height="100" width="100"/>
   <circle opacity="0.3" fill="#85754e" r="0.5" cy="10" cx="10"/>
   <circle opacity="0.3" fill="#85754e" r="0.4" cy="30" cx="25"/>
   <circle opacity="0.3" fill="#85754e" r="0.6" cy="15" cx="40"/>
   <circle opacity="0.3" fill="#85754e" r="0.5" cy="45" cx="55"/>
   <circle opacity="0.3" fill="#85754e" r="0.4" cy="35" cx="70"/>
   <circle opacity="0.3" fill="#85754e" r="0.5" cy="60" cx="85"/>
   <circle opacity="0.3" fill="#85754e" r="0.6" cy="75" cx="30"/>
   <circle opacity="0.3" fill="#85754e" r="0.4" cy="90" cx="50"/>
   <circle opacity="0.3" fill="#85754e" r="0.5" cy="80" cx="95"/>
  </pattern>
 </defs>
 <g>
  <title>Layer 1</title>
  <g stroke-width="0">
   <defs transform="translate(2.85344, 19.0661) translate(32.0363, 2.98314) translate(-388) translate(0, -388)">
    <filter height="100%" width="100%" y="0%" x="0%" id="svg_7">
     <feGaussianBlur result="blur" stdDeviation="0.7"/>
    </filter>
   </defs>
   <rect x="-353.11025" y="-365.95071" filter="url(#svg_7)" fill="url(#svg_6)" height="800" width="800"/>
   <rect x="-353.11025" y="-365.95071" opacity="0.7" fill="url(#svg_5)" height="800" width="800"/>
   <rect x="-353.11025" y="-365.95071" ry="5" rx="5" fill="none" stroke-width="5" stroke="#c9b382" height="800" width="800"/>
  </g>
  <path id="svg_1" d="m15,12l-5,0"/>
  <path id="svg_2" d="m15,8l-5,0"/>
  <path id="svg_3" d="m19,17l0,-12a2,2 0 0 0 -2,-2l-13,0"/>
  <path fill="#ffffff" id="svg_4" d="m8,21l12,0a2,2 0 0 0 2,-2l0,-1a1,1 0 0 0 -1,-1l-10,0a1,1 0 0 0 -1,1l0,1a2,2 0 1 1 -4,0l0,-14a2,2 0 1 0 -4,0l0,2a1,1 0 0 0 1,1l3,0"/>
 </g>
</svg>